<svg width="100" height="106" viewBox="0 0 100 106" fill="none" xmlns="http://www.w3.org/2000/svg">
<g opacity="0.6">
<path fill-rule="evenodd" clip-rule="evenodd" d="M87.8301 19.5934C80.6901 10.3961 70.7666 3.61911 59.512 0.472656H59.1489H58.7859H58.4228C58.0598 0.472656 57.6967 0.472656 57.3337 0.472656C53.4611 0.472656 49.5885 3.25607 48.4994 7.24965C47.0472 11.8483 49.9516 16.81 54.9133 18.6253C70.5246 22.8609 81.1741 37.02 81.1741 52.9943C81.1741 72.4781 64.8368 88.4525 44.9899 88.4525C35.4295 88.4525 26.2321 84.5799 19.4551 77.8029C17.2768 75.6246 15.2196 74.6565 12.6782 74.6565C10.1368 74.6565 8.07949 75.7456 6.26423 77.1978C4.44896 79.0131 3.48083 81.0704 3.48083 83.6118C3.48083 86.1531 4.56998 88.2104 6.26423 90.0257C16.5507 100.312 30.3467 106 44.8688 106C75.0022 106 99.4478 81.9175 99.4478 52.1472C99.2058 40.4085 95.3332 29.1538 87.8301 19.5934Z" fill="#5C6685"/>
<path fill-rule="evenodd" clip-rule="evenodd" d="M16.8314 33.0378C21.7931 25.5347 29.2962 20.331 37.7674 17.7896C40.3088 17.0635 42.0031 15.6113 43.4553 13.554C44.9075 11.4967 44.9075 8.9553 44.5444 6.77698C42.7292 2.90442 39.2196 0 35.3471 0C34.621 0 33.8949 -5.55417e-06 32.8057 0.363047C20.0988 3.87256 8.72321 11.7387 1.58317 23.1144C0.130958 24.9296 -0.232109 27.35 0.130944 29.8913C0.857049 32.4327 2.30928 34.127 4.00352 35.5792C5.45573 36.6683 7.14999 37.0314 8.96525 37.0314C12.1117 36.9104 15.3792 35.4581 16.8314 33.0378Z" fill="#5C6685"/>
</g>
</svg>
