<svg width="103" height="103" viewBox="0 0 103 103" fill="none" xmlns="http://www.w3.org/2000/svg">
<g opacity="0.6">
<path fill-rule="evenodd" clip-rule="evenodd" d="M12.1373 3.28412C13.2637 2.15945 14.6162 1.287 16.1053 0.724584C17.5943 0.162168 19.1859 -0.0773699 20.7745 0.0218431C22.3631 0.121056 23.9125 0.556755 25.32 1.30007C26.7275 2.04338 27.961 3.07733 28.9387 4.3334L40.4936 19.1778C42.6115 21.9008 43.3582 25.4477 42.5214 28.7951L39.0002 42.8928C38.8181 43.623 38.828 44.3878 39.0287 45.1131C39.2295 45.8384 39.6144 46.4994 40.146 47.032L55.9625 62.8484C56.4957 63.3812 57.1578 63.7667 57.8843 63.9675C58.6108 64.1683 59.377 64.1775 60.1081 63.9943L74.1993 60.4731C75.8512 60.0601 77.5754 60.028 79.2415 60.3793C80.9077 60.7306 82.4721 61.456 83.8167 62.5008L98.6611 74.0493C103.998 78.2014 104.487 86.0871 99.7103 90.8571L93.0542 97.5133C88.2906 102.277 81.1709 104.369 74.5341 102.032C57.5472 96.0554 42.124 86.3307 29.4086 73.5794C16.6582 60.8659 6.93348 45.4449 0.955752 28.4604C-1.37455 21.83 0.717572 14.7039 5.48117 9.94029L12.1373 3.28412Z" fill="#5C6685"/>
</g>
</svg>
