<svg width="110" height="110" viewBox="0 0 110 110" fill="none" xmlns="http://www.w3.org/2000/svg">
<g opacity="0.6">
<path d="M110 55C110 69.5869 104.205 83.5764 93.8909 93.8909C83.5764 104.205 69.5869 110 55 110C40.4131 110 26.4236 104.205 16.1091 93.8909C5.79463 83.5764 0 69.5869 0 55C0 40.4131 5.79463 26.4236 16.1091 16.1091C26.4236 5.79463 40.4131 0 55 0C69.5869 0 83.5764 5.79463 93.8909 16.1091C104.205 26.4236 110 40.4131 110 55ZM37.785 41.4769H43.4569C44.4056 41.4769 45.1619 40.7 45.2856 39.7581C45.9044 35.2481 48.9981 31.9619 54.5119 31.9619C59.2281 31.9619 63.5456 34.32 63.5456 39.9919C63.5456 44.3575 60.9744 46.365 56.9112 49.4175C52.2844 52.7794 48.62 56.705 48.8813 63.0781L48.9019 64.57C48.9091 65.0211 49.0934 65.4512 49.4149 65.7676C49.7365 66.084 50.1695 66.2613 50.6206 66.2612H56.1962C56.6521 66.2612 57.0893 66.0802 57.4116 65.7578C57.7339 65.4355 57.915 64.9983 57.915 64.5425V63.8206C57.915 58.8844 59.7919 57.4475 64.8588 53.6044C69.0456 50.4212 73.4113 46.8875 73.4113 39.4694C73.4113 29.0813 64.6388 24.0625 55.0344 24.0625C46.3238 24.0625 36.7813 28.1187 36.1281 39.7787C36.1187 40.0008 36.1548 40.2224 36.2342 40.4299C36.3136 40.6375 36.4346 40.8266 36.5898 40.9856C36.745 41.1447 36.9311 41.2703 37.1366 41.3548C37.3422 41.4393 37.5628 41.4808 37.785 41.4769ZM53.7694 85.7725C57.9631 85.7725 60.8438 83.0637 60.8438 79.3994C60.8438 75.6044 57.9563 72.9369 53.7694 72.9369C49.7544 72.9369 46.8325 75.6044 46.8325 79.3994C46.8325 83.0637 49.7475 85.7725 53.7694 85.7725Z" fill="#5C6685"/>
</g>
</svg>
