<svg width="119" height="117" viewBox="0 0 119 117" fill="none" xmlns="http://www.w3.org/2000/svg">
<path opacity="0.6" d="M71.7451 5.36828C65.779 1.78944 62.7963 0 59.5 0C56.2039 0 53.2209 1.78944 47.255 5.36828L23.11 19.8525C11.8224 26.6239 6.17848 30.0095 3.08924 35.4647C0 40.9198 0 47.5003 0 60.6613V85.2729C0 92.6489 0 96.3372 0.810967 99.3634C3.01168 107.575 9.42694 113.989 17.6401 116.189C20.6667 117 24.3556 117 31.7333 117C35.4222 117 37.2667 117 38.78 116.594C42.8865 115.494 46.0942 112.287 47.1945 108.181C47.6 106.669 47.6 104.824 47.6 101.136V93.2045C47.6 87.596 47.6 84.7917 49.3427 83.0492C51.0854 81.3068 53.8903 81.3068 59.5 81.3068C65.1097 81.3068 67.9145 81.3068 69.6572 83.0492C71.4 84.7917 71.4 87.596 71.4 93.2045V101.136C71.4 104.824 71.4 106.669 71.8052 108.181C72.9059 112.287 76.1136 115.494 80.2203 116.594C81.7334 117 83.5779 117 87.2669 117C94.6443 117 98.3333 117 101.36 116.189C109.573 113.989 115.988 107.575 118.189 99.3634C119 96.3372 119 92.6489 119 85.2729V60.6613C119 47.5003 119 40.9198 115.911 35.4647C112.822 30.0095 107.178 26.6239 95.8902 19.8525L71.7451 5.36828Z" fill="#5C6685"/>
</svg>
