<svg width="108" height="108" viewBox="0 0 108 108" fill="none" xmlns="http://www.w3.org/2000/svg">
<g opacity="0.6">
<path d="M9 108C9 108 0 108 0 99C0 90 9 63 54 63C99 63 108 90 108 99C108 108 99 108 99 108H9ZM54 54C61.1608 54 68.0284 51.1554 73.0919 46.0919C78.1554 41.0284 81 34.1608 81 27C81 19.8392 78.1554 12.9716 73.0919 7.90812C68.0284 2.84464 61.1608 0 54 0C46.8392 0 39.9716 2.84464 34.9081 7.90812C29.8446 12.9716 27 19.8392 27 27C27 34.1608 29.8446 41.0284 34.9081 46.0919C39.9716 51.1554 46.8392 54 54 54Z" fill="#5C6685"/>
</g>
</svg>
