<svg width="94" height="113" viewBox="0 0 94 113" fill="none" xmlns="http://www.w3.org/2000/svg">
<path d="M0.374268 43.1763V44.648C0.374268 49.5559 4.38018 54.4602 10.9954 58.2864V42.0501C7.07065 40.1848 3.4806 37.6282 0.374268 34.4932V43.1763Z" fill="#5C6685" fill-opacity="0.6"/>
<path d="M0.374268 81.4468V91.259C0.374268 96.167 4.38018 101.071 10.9954 104.898V88.0724C7.08047 86.2345 3.48717 83.7155 0.374268 80.6147V81.4468Z" fill="#5C6685" fill-opacity="0.6"/>
<path d="M16.5764 60.988C20.1015 62.405 23.7306 63.5207 27.4279 64.325V47.5446C23.7436 46.7951 20.1178 45.7614 16.5764 44.4541V60.988Z" fill="#5C6685" fill-opacity="0.6"/>
<path d="M0.374268 58.2359V68.0481C0.374268 72.9561 4.38018 77.8604 10.9954 81.6866V65.0052V65.0086C7.07398 63.1433 3.4806 60.5867 0.374268 57.4517V58.2359Z" fill="#5C6685" fill-opacity="0.6"/>
<path d="M16.5764 107.654C20.1015 109.071 23.7306 110.187 27.4279 110.991V93.5706C23.7436 92.8073 20.1146 91.7566 16.5764 90.4321V107.654Z" fill="#5C6685" fill-opacity="0.6"/>
<path d="M93.1533 21.7369C93.1533 9.96029 71.9152 0 46.5767 0C21.2381 0 0 9.81221 0 21.7369C0 33.6607 21.2381 43.4738 46.5767 43.4738C71.9152 43.4738 93.1533 33.6615 93.1533 21.7369Z" fill="#5C6685" fill-opacity="0.6"/>
<path d="M65.8566 87.5832C69.5538 86.7926 73.1829 85.694 76.7114 84.2976V67.3218C73.1701 68.6292 69.541 69.6594 65.8566 70.4123V87.5832Z" fill="#5C6685" fill-opacity="0.6"/>
<path d="M65.8566 111.036C69.5538 110.245 73.1829 109.146 76.7114 107.747V90.4282C73.1701 91.7356 69.541 92.7692 65.8566 93.5187V111.036Z" fill="#5C6685" fill-opacity="0.6"/>
<path d="M65.8566 64.3723C69.5538 63.5509 73.1829 62.418 76.7114 60.9874V44.5522C73.1669 45.8392 69.541 46.8556 65.8566 47.5915V64.3723Z" fill="#5C6685" fill-opacity="0.6"/>
<path d="M82.2993 81.6473C89.0538 77.8688 93.1508 73.0601 93.1508 67.8616V57.2617C89.9799 60.4515 86.3086 63.039 82.2993 64.9145V81.6473Z" fill="#5C6685" fill-opacity="0.6"/>
<path d="M82.2993 105.147C89.0538 101.369 93.1508 96.5603 93.1508 91.3618V80.6147C89.9799 83.8045 86.3086 86.392 82.2993 88.2676V105.147Z" fill="#5C6685" fill-opacity="0.6"/>
<path d="M16.5764 84.2007C20.1015 85.6176 23.7306 86.7333 27.4279 87.5376V70.363C23.7436 69.6134 20.1178 68.5833 16.5764 67.2725V84.2007Z" fill="#5C6685" fill-opacity="0.6"/>
<path d="M82.2993 58.441C89.0538 54.6626 93.1508 49.8539 93.1508 44.6554V34.4971C89.9799 37.6869 86.3086 40.2778 82.2993 42.1499V58.441Z" fill="#5C6685" fill-opacity="0.6"/>
<path d="M33.0193 112.069C36.6158 112.596 40.2384 112.904 43.8708 113V95.3361C40.2417 95.2437 36.6192 94.9494 33.0193 94.4531V112.069Z" fill="#5C6685" fill-opacity="0.6"/>
<path d="M33.0193 88.6143C36.6158 89.1414 40.2384 89.4528 43.8708 89.5486V72.2268C40.2417 72.1344 36.6192 71.84 33.0193 71.3438V88.6143Z" fill="#5C6685" fill-opacity="0.6"/>
<path d="M33.0193 65.3498C36.6158 65.8769 40.2384 66.1884 43.8708 66.2808V49.404C40.2417 49.3116 36.6192 49.0172 33.0193 48.521V65.3498Z" fill="#5C6685" fill-opacity="0.6"/>
<path d="M49.463 112.999C53.0466 112.914 56.6237 112.619 60.1748 112.116V94.5518C56.6205 95.0104 53.0434 95.2705 49.463 95.3355V112.999Z" fill="#5C6685" fill-opacity="0.6"/>
<path d="M49.4625 66.3371C53.0461 66.2345 56.6231 65.923 60.1743 65.4028V48.5742C56.5745 49.0705 52.9519 49.3648 49.3228 49.4572L49.4625 66.3371Z" fill="#5C6685" fill-opacity="0.6"/>
<path d="M49.4625 89.5405C53.0461 89.4378 56.6231 89.1263 60.1743 88.6061V71.3359C56.5745 71.8322 52.9519 72.1265 49.3228 72.2189L49.4625 89.5405Z" fill="#5C6685" fill-opacity="0.6"/>
</svg>
