<svg width="81" height="108" viewBox="0 0 81 108" fill="none" xmlns="http://www.w3.org/2000/svg">
<g opacity="0.6">
<path d="M2.45091e-05 40.5008C-0.000185477 33.8131 1.65576 27.2294 4.82 21.3375C7.98425 15.4457 12.5583 10.4292 18.1337 6.73592C23.7092 3.04262 30.1124 0.787509 36.7718 0.171937C43.4311 -0.443636 50.1393 0.599496 56.2972 3.20819C62.4552 5.81688 67.8713 9.90994 72.062 15.1219C76.2526 20.3338 79.0873 26.5024 80.313 33.0769C81.5388 39.6513 81.1173 46.427 79.0863 52.7989C77.0553 59.1708 73.4779 64.9405 68.6737 69.593C67.3035 70.9159 66.2505 72.2929 65.616 73.7711L60.4726 85.7118C60.2116 86.3169 59.7791 86.8325 59.2285 87.1947C58.678 87.5569 58.0334 87.7501 57.3743 87.7502H23.6247C22.9645 87.7514 22.3185 87.5589 21.7666 87.1966C21.2147 86.8342 20.7812 86.318 20.5198 85.7118L15.3831 73.7644C14.6476 72.1867 13.6086 70.7692 12.3254 69.593C8.42138 65.8209 5.31782 61.3005 3.20012 56.302C1.08242 51.3035 -0.00595548 45.9294 2.45091e-05 40.5008ZM20.2498 97.8751C20.2498 96.98 20.6054 96.1216 21.2383 95.4887C21.8712 94.8557 22.7296 94.5002 23.6247 94.5002H57.3743C58.2694 94.5002 59.1279 94.8557 59.7608 95.4887C60.3937 96.1216 60.7493 96.98 60.7493 97.8751C60.7493 98.7702 60.3937 99.6286 59.7608 100.262C59.1279 100.894 58.2694 101.25 57.3743 101.25L55.8624 104.267C55.3022 105.388 54.441 106.331 53.3752 106.991C52.3094 107.65 51.0811 107.999 49.8279 108H31.1712C29.918 107.999 28.6897 107.65 27.6239 106.991C26.5581 106.331 25.6969 105.388 25.1367 104.267L23.6247 101.25C22.7296 101.25 21.8712 100.894 21.2383 100.262C20.6054 99.6286 20.2498 98.7702 20.2498 97.8751Z" fill="#5C6685"/>
</g>
</svg>
